<svg xmlns="http://www.w3.org/2000/svg" xmlns:xlink="http://www.w3.org/1999/xlink" viewBox="0 0 247.09 98.07"><defs><style>.cls-1{fill:url(#Gradiente_sem_nome_7);}.cls-2{fill:url(#Gradiente_sem_nome_7-2);}.cls-3{fill:url(#Gradiente_sem_nome_7-3);}.cls-4{fill:url(#Gradiente_sem_nome_7-4);}.cls-5{fill:url(#Gradiente_sem_nome_7-5);}.cls-6{fill:url(#Gradiente_sem_nome_7-6);}.cls-7{fill:url(#Gradiente_sem_nome_7-7);}.cls-8{fill:#27aae1;}</style><linearGradient id="Gradiente_sem_nome_7" x1="47.98" y1="93.58" x2="47.98" y2="3.14" gradientUnits="userSpaceOnUse"><stop offset="0" stop-color="#1d2f5d"/><stop offset="1" stop-color="#0b183f"/></linearGradient><linearGradient id="Gradiente_sem_nome_7-2" x1="81.73" y1="93.58" x2="81.73" y2="3.14" xlink:href="#Gradiente_sem_nome_7"/><linearGradient id="Gradiente_sem_nome_7-3" x1="115.36" y1="93.58" x2="115.36" y2="3.14" xlink:href="#Gradiente_sem_nome_7"/><linearGradient id="Gradiente_sem_nome_7-4" x1="150.17" y1="93.58" x2="150.17" y2="3.14" xlink:href="#Gradiente_sem_nome_7"/><linearGradient id="Gradiente_sem_nome_7-5" x1="174.32" y1="93.58" x2="174.32" y2="3.14" xlink:href="#Gradiente_sem_nome_7"/><linearGradient id="Gradiente_sem_nome_7-6" x1="197.79" y1="93.58" x2="197.79" y2="3.14" xlink:href="#Gradiente_sem_nome_7"/><linearGradient id="Gradiente_sem_nome_7-7" x1="123.54" y1="93.58" x2="123.54" y2="3.14" xlink:href="#Gradiente_sem_nome_7"/></defs><g id="Camada_2" data-name="Camada 2"><g id="Camada_1-2" data-name="Camada 1"><polygon class="cls-1" points="47.98 13.89 56.36 30.31 63.44 30.31 47.98 0 32.52 30.31 39.59 30.31 47.98 13.89"/><path class="cls-2" d="M92.14,26c.29-.3.59-.59.84-.89A14.74,14.74,0,0,0,83.16.87l.11-.11H67V30.31H81.75A14.48,14.48,0,0,0,92.14,26ZM73.25,24V7.11h8.46a8.47,8.47,0,0,1,0,16.93Z"/><path class="cls-3" d="M115.36,30.31a14.78,14.78,0,1,0-14.78-14.77A14.79,14.79,0,0,0,115.36,30.31Zm0-23.24a8.47,8.47,0,1,1-8.46,8.47A8.47,8.47,0,0,1,115.36,7.07Z"/><polygon class="cls-4" points="141.71 13.1 164.95 31 164.95 0.81 158.63 0.75 158.63 18.13 135.39 0.23 135.39 30.35 141.71 30.35 141.71 13.1"/><rect class="cls-5" x="171.16" y="0.76" width="6.31" height="29.55"/><path class="cls-6" d="M193.36,30.31h8.85a9.57,9.57,0,0,0,7.36-15.67.53.53,0,0,1-.12-.14l-.18-.2a9.56,9.56,0,0,0-7.06-3.11H192a2,2,0,0,1-2-2V9.07a2,2,0,0,1,2-2H203.5a2,2,0,0,1,2,2v.8l6.31,0V9A8.28,8.28,0,0,0,203.5.76H192A8.26,8.26,0,0,0,183.8,9v.16a8.08,8.08,0,0,0,1.43,4.66,7.65,7.65,0,0,0,1.06,1.33A8.18,8.18,0,0,0,192,17.5h10.18a3.25,3.25,0,1,1,0,6.5h-8.85a3.26,3.26,0,0,1-3.25-3.25v-.63H183.8v.63A9.57,9.57,0,0,0,193.36,30.31Z"/><path class="cls-7" d="M200.7,73.18a17.28,17.28,0,1,0-15.26-3.81c-2.2-.48-4.44-.94-6.7-1.36V62l-15.13,0a3.33,3.33,0,0,1-2.84-2.75V39.16h-6.23V58.75a9.2,9.2,0,0,0,1,4.17,9,9,0,0,0,1.24,1.88c-1.63-.18-3.28-.33-4.93-.48V62L136.7,62a3.31,3.31,0,0,1-2.83-2.75V39.16h-6.23V58.75a9.32,9.32,0,0,0,1,4.17c0,.06.08.12.11.18-1.72,0-3.44,0-5.18,0H122.4a14.54,14.54,0,1,0-21.42.79c-8.33.59-16.43,1.5-24.23,2.71V55.41H89.44l.63,0v0a7,7,0,0,0,2-.61,8.16,8.16,0,0,0,4.74-7.4,8.27,8.27,0,0,0-2.36-5.77l0,0a8,8,0,0,0-5.73-2.37H70.52v28.5c-1.37.24-2.72.5-4.07.76l-15.31-30-20.41,40C18.61,83,8.2,88.5,0,94.67,31.37,80.2,75.13,71.21,123.54,71.21s92.17,9,123.55,23.46C235.55,86,219.62,78.61,200.7,73.18Zm-3.92-26.66a9.87,9.87,0,1,1-9.86,9.86A9.88,9.88,0,0,1,196.78,46.52Zm-85.45-1.17A8.31,8.31,0,1,1,103,53.66,8.32,8.32,0,0,1,111.33,45.35Zm-34.58,0h12a1.89,1.89,0,0,1,1.34.53,2,2,0,0,1,.57,1.39A1.88,1.88,0,0,1,89.5,49l-.29.16a1.93,1.93,0,0,1-.49.07h-12ZM51.14,55.14,58.73,70q-9.21,2.1-17.61,4.76Z"/><path class="cls-8" d="M54.15,98.07A6.37,6.37,0,0,1,53,98a5,5,0,0,1-1-.32,3.76,3.76,0,0,1-.85-.51l.48-1a4.3,4.3,0,0,0,1.23.65,4.51,4.51,0,0,0,1.36.2,2.4,2.4,0,0,0,1.28-.29.93.93,0,0,0,.45-.82.71.71,0,0,0-.2-.51,1.42,1.42,0,0,0-.6-.35,8.3,8.3,0,0,0-1-.28,8.19,8.19,0,0,1-1.24-.33A3.53,3.53,0,0,1,52,93.9a1.73,1.73,0,0,1-.54-.64,2,2,0,0,1-.18-.89,2.07,2.07,0,0,1,.38-1.24,2.38,2.38,0,0,1,1.06-.85A3.82,3.82,0,0,1,54.3,90a5.49,5.49,0,0,1,1.08.11,4.17,4.17,0,0,1,1,.32,2.92,2.92,0,0,1,.77.5l-.49,1a3.85,3.85,0,0,0-1.12-.64,3.5,3.5,0,0,0-1.21-.21,2,2,0,0,0-1.21.32,1,1,0,0,0-.45.86.8.8,0,0,0,.18.54,1.42,1.42,0,0,0,.57.35,7.19,7.19,0,0,0,1,.29,9.75,9.75,0,0,1,1.23.34,3.58,3.58,0,0,1,.92.45,1.77,1.77,0,0,1,.57.62,1.79,1.79,0,0,1,.19.86A2.06,2.06,0,0,1,56.92,97a2.38,2.38,0,0,1-1.08.81A4.5,4.5,0,0,1,54.15,98.07Z"/><path class="cls-8" d="M79,98V90.06h5.3v1.12h-3.9v2.21H84.1v1.13H80.42v2.34h3.9V98Z"/><path class="cls-8" d="M106,98V90.06h3.4a3.08,3.08,0,0,1,2,.59,2.11,2.11,0,0,1,.7,1.69,2,2,0,0,1-.73,1.66,3,3,0,0,1-2,.62l.89-.18a1.19,1.19,0,0,1,.73.25,1.58,1.58,0,0,1,.52.76l1,2.53H111l-1-2.63a.92.92,0,0,0-.44-.53,1.67,1.67,0,0,0-.71-.13h-1.44V98Zm1.4-4.4h1.8a1.86,1.86,0,0,0,1.2-.31,1.09,1.09,0,0,0,.38-.9,1.07,1.07,0,0,0-.38-.9,2,2,0,0,0-1.2-.29h-1.8Z"/><path class="cls-8" d="M136.66,98l-3.53-7.92h1.5l2.85,6.65H137l2.89-6.65h1.44L137.84,98Z"/><path class="cls-8" d="M162.48,98V90.06h5.3v1.12h-3.9v2.21h3.68v1.13h-3.68v2.34h3.9V98Z"/><path class="cls-8" d="M189.47,98V90.06h3.4a3.08,3.08,0,0,1,2,.59,2.11,2.11,0,0,1,.7,1.69,2,2,0,0,1-.73,1.66,3,3,0,0,1-2,.62l.89-.18a1.19,1.19,0,0,1,.73.25,1.58,1.58,0,0,1,.52.76L196,98h-1.52l-1-2.63a.92.92,0,0,0-.44-.53,1.64,1.64,0,0,0-.71-.13h-1.44V98Zm1.41-4.4h1.79a1.86,1.86,0,0,0,1.2-.31,1.09,1.09,0,0,0,.38-.9,1.07,1.07,0,0,0-.38-.9,2,2,0,0,0-1.2-.29h-1.79Z"/></g></g></svg>